<svg xmlns="http://www.w3.org/2000/svg" viewBox="0 0 1024 1024" width="1024" height="1024">
  <!-- Rounded black background -->
  <rect width="1024" height="1024" rx="180" ry="180" fill="#000000"/>

  <!-- Radio icon centered and scaled -->
  <g transform="translate(512, 512) scale(0.65) translate(-480, 480)">
    <path d="M160-80q-33 0-56.5-23.5T80-160v-480q0-25 13.5-45t36.5-29l506-206 26 66-330 134h468q33 0 56.5 23.5T880-640v480q0 33-23.5 56.5T800-80H160Zm0-80h640v-280H160v280Zm160-40q42 0 71-29t29-71q0-42-29-71t-71-29q-42 0-71 29t-29 71q0 42 29 71t71 29ZM160-520h480v-80h80v80h80v-120H160v120Zm0 360v-280 280Z" fill="#e3e3e3"/>
  </g>
</svg>
